<?xml version="1.0" encoding="iso-8859-1"?>
<!-- Generator: Adobe Illustrator 16.0.0, SVG Export Plug-In . SVG Version: 6.00 Build 0)  -->
<!DOCTYPE svg PUBLIC "-//W3C//DTD SVG 1.1//EN" "http://www.w3.org/Graphics/SVG/1.1/DTD/svg11.dtd">
<svg version="1.1" id="Capa_1" xmlns="http://www.w3.org/2000/svg" xmlns:xlink="http://www.w3.org/1999/xlink" x="0px" y="0px"
	 width="608.815px" height="608.816px" viewBox="0 0 608.815 608.816" style="enable-background:new 0 0 608.815 608.816;"
	 xml:space="preserve">
<g>
	<g>
		<path d="M255.199,277.705h97.274v60.215c92.23-4.557,154.626-21.625,192.292-36.318c37.15-14.487,57.103-29.051,64.05-34.717
			V197.6c0-17.695-14.344-32.044-32.044-32.044h-53.406v-32.044h-34.712V74.769c0-29.448-23.959-53.406-53.406-53.406H173.564
			c-29.448,0-53.406,23.954-53.406,53.406v58.748H85.446v32.044H32.044C14.344,165.556,0,179.904,0,197.6v75.931
			c30.098,18.484,109.294,57.031,255.199,64.336V277.705z M162.883,133.512V74.769c0-5.89,4.791-10.681,10.681-10.681h261.683
			c5.891,0,10.681,4.791,10.681,10.681v58.748h-34.712v32.044H197.6v-32.044h-34.717V133.512z"/>
		<path d="M133.512,360.99v226.463H480.64v-228.09c-35.505,7.713-77.915,13.65-128.171,16.008v16.777
			c0,25.283-20.492,45.775-45.775,45.775h-5.723c-25.278,0-45.776-20.492-45.776-45.775v-16.824
			C208.501,373.105,168.08,367.865,133.512,360.99z"/>
		<path d="M32.044,587.453h64.088v-235.07C53.354,341.181,21.826,327.875,0,316.572v67.945v170.896
			C0,573.109,14.344,587.453,32.044,587.453z"/>
		<path d="M608.811,555.41V384.517V312.13c-19.216,11.459-48.688,25.689-90.786,37.857v237.465h58.747
			C594.467,587.453,608.811,573.109,608.811,555.41z"/>
	</g>
</g>
<g>
</g>
<g>
</g>
<g>
</g>
<g>
</g>
<g>
</g>
<g>
</g>
<g>
</g>
<g>
</g>
<g>
</g>
<g>
</g>
<g>
</g>
<g>
</g>
<g>
</g>
<g>
</g>
<g>
</g>
</svg>
